<svg width="26" height="48" viewBox="0 0 26 48" fill="none" xmlns="http://www.w3.org/2000/svg">
<path d="M24.974 0.0099872L18.7495 0C11.7564 0 7.23723 4.63656 7.23723 11.8129V17.2594H0.978747C0.437939 17.2594 0 17.6978 0 18.2386V26.13C0 26.6708 0.438439 27.1088 0.978747 27.1088H7.23723V47.0213C7.23723 47.5621 7.67517 48 8.21597 48H16.3815C16.9223 48 17.3603 47.5616 17.3603 47.0213V27.1088H24.6779C25.2187 27.1088 25.6566 26.6708 25.6566 26.13L25.6596 18.2386C25.6596 17.979 25.5563 17.7303 25.373 17.5465C25.1897 17.3628 24.94 17.2594 24.6804 17.2594H17.3603V12.6423C17.3603 10.4231 17.8891 9.29659 20.7799 9.29659L24.973 9.29509C25.5133 9.29509 25.9513 8.85665 25.9513 8.31634V0.988733C25.9513 0.448925 25.5138 0.0109859 24.974 0.0099872Z" fill="white"/>
</svg>
