<svg width="48" height="48" viewBox="0 0 48 48" fill="none" xmlns="http://www.w3.org/2000/svg">
<path d="M47.8689 14.1122C47.7564 11.5617 47.344 9.80834 46.7532 8.289C46.1437 6.67625 45.206 5.23236 43.9775 4.03205C42.7772 2.81306 41.3237 1.86585 39.7297 1.26588C38.2015 0.675061 36.4573 0.262625 33.9069 0.150176C31.3374 0.0282038 30.5217 0 24.0048 0C17.4878 0 16.6721 0.0282038 14.1122 0.140653C11.5617 0.253102 9.80834 0.665904 8.28936 1.25635C6.67625 1.86585 5.23236 2.80353 4.03205 4.03205C2.81306 5.23236 1.86621 6.68577 1.26588 8.27984C0.675061 9.80834 0.262625 11.5522 0.150176 14.1026C0.0282038 16.6721 0 17.4878 0 24.0048C0 30.5217 0.0282038 31.3374 0.140653 33.8973C0.253102 36.4478 0.665904 38.2012 1.25672 39.7205C1.86621 41.3333 2.81306 42.7772 4.03205 43.9775C5.23236 45.1965 6.68577 46.1437 8.27984 46.7436C9.80834 47.3345 11.5522 47.7469 14.103 47.8593C16.6626 47.9722 17.4787 48 23.9956 48C30.5125 48 31.3282 47.9722 33.8882 47.8593C36.4386 47.7469 38.192 47.3345 39.711 46.7436C42.9369 45.4964 45.4873 42.946 46.7345 39.7205C47.3249 38.192 47.7377 36.4478 47.8502 33.8973C47.9626 31.3374 47.9908 30.5217 47.9908 24.0048C47.9908 17.4878 47.9813 16.6721 47.8689 14.1122ZM43.5464 33.7098C43.4431 36.054 43.0493 37.3199 42.7211 38.1638C41.9146 40.2549 40.2549 41.9146 38.1638 42.7211C37.3199 43.0493 36.0449 43.4431 33.7098 43.546C31.1781 43.6588 30.4188 43.6866 24.0143 43.6866C17.6098 43.6866 16.841 43.6588 14.3184 43.546C11.9742 43.4431 10.7083 43.0493 9.86438 42.7211C8.82377 42.3365 7.87656 41.727 7.10773 40.93C6.3107 40.1516 5.7012 39.214 5.31661 38.1733C4.98842 37.3294 4.59466 36.054 4.49173 33.7193C4.37892 31.1876 4.35108 30.4279 4.35108 24.0234C4.35108 17.619 4.37892 16.8501 4.49173 14.3279C4.59466 11.9837 4.98842 10.7178 5.31661 9.87391C5.7012 8.83293 6.3107 7.88609 7.11726 7.11689C7.89524 6.31986 8.83293 5.71036 9.87391 5.32613C10.7178 4.99794 11.9932 4.60418 14.3279 4.50089C16.8597 4.38844 17.6193 4.36024 24.0234 4.36024C30.4374 4.36024 31.1967 4.38844 33.7193 4.50089C36.0635 4.60418 37.3294 4.99794 38.1733 5.32613C39.214 5.71036 40.1612 6.31986 40.93 7.11689C41.727 7.89524 42.3365 8.83293 42.7211 9.87391C43.0493 10.7178 43.4431 11.9929 43.5464 14.3279C43.6588 16.8597 43.687 17.619 43.687 24.0234C43.687 30.4279 43.6588 31.1781 43.5464 33.7098Z" fill="white"/>
<path d="M24.0048 11.6741C17.1974 11.6741 11.6742 17.1969 11.6742 24.0046C11.6742 30.8124 17.1974 36.3352 24.0048 36.3352C30.8125 36.3352 36.3354 30.8124 36.3354 24.0046C36.3354 17.1969 30.8125 11.6741 24.0048 11.6741ZM24.0048 32.0032C19.5885 32.0032 16.0063 28.4213 16.0063 24.0046C16.0063 19.588 19.5885 16.0061 24.0048 16.0061C28.4214 16.0061 32.0033 19.588 32.0033 24.0046C32.0033 28.4213 28.4214 32.0032 24.0048 32.0032Z" fill="white"/>
<path d="M39.7018 11.1871C39.7018 12.7768 38.4129 14.0657 36.8228 14.0657C35.2332 14.0657 33.9442 12.7768 33.9442 11.1871C33.9442 9.59706 35.2332 8.30847 36.8228 8.30847C38.4129 8.30847 39.7018 9.59706 39.7018 11.1871Z" fill="white"/>
</svg>
