<svg width="34" height="44" viewBox="0 0 34 44" fill="none" xmlns="http://www.w3.org/2000/svg">
<path opacity="0.1" fill-rule="evenodd" clip-rule="evenodd" d="M1 6.2C0.72 5.55 0.38 4.94 0 4.36V17.64C0.38 17.06 0.72 16.44 1 15.8C2.21393 18.5725 4.42752 20.7861 7.2 22C4.42752 23.2139 2.21393 25.4275 1 28.2C0.72 27.55 0.38 26.94 0 26.36V39.64C0.38 39.06 0.72 38.44 1 37.8C2.21393 40.5725 4.42752 42.7861 7.2 44H28.8C30.9152 43.0748 32.7201 41.5615 34 39.64V26.36C32.7201 24.4385 30.9152 22.9252 28.8 22C30.9152 21.0748 32.7201 19.5615 34 17.64V4.36C32.7201 2.43853 30.9152 0.925181 28.8 0H7.2C4.42752 1.21393 2.21393 3.42752 1 6.2V6.2ZM17.36 23H12C10.6868 23 9.38642 23.2587 8.17317 23.7612C6.95991 24.2638 5.85752 25.0003 4.92893 25.9289C4.00035 26.8575 3.26375 27.9599 2.7612 29.1732C2.25866 30.3864 2 31.6868 2 33C2 34.3132 2.25866 35.6136 2.7612 36.8268C3.26375 38.0401 4.00035 39.1425 4.92893 40.0711C5.85752 40.9997 6.95991 41.7362 8.17317 42.2388C9.38642 42.7413 10.6868 43 12 43H17.36C15.7077 41.907 14.3519 40.4215 13.414 38.6765C12.4761 36.9314 11.9851 34.9811 11.9851 33C11.9851 31.0189 12.4761 29.0686 13.414 27.3235C14.3519 25.5785 15.7077 24.093 17.36 23V23ZM18.64 21H24C26.6522 21 29.1957 19.9464 31.0711 18.0711C32.9464 16.1957 34 13.6522 34 11C34 8.34784 32.9464 5.8043 31.0711 3.92893C29.1957 2.05357 26.6522 1 24 1H18.64C20.2923 2.09304 21.6481 3.57848 22.586 5.32353C23.5239 7.06858 24.0149 9.01886 24.0149 11C24.0149 12.9811 23.5239 14.9314 22.586 16.6765C21.6481 18.4215 20.2923 19.907 18.64 21V21ZM12 1C9.34784 1 6.8043 2.05357 4.92893 3.92893C3.05357 5.8043 2 8.34784 2 11C2 13.6522 3.05357 16.1957 4.92893 18.0711C6.8043 19.9464 9.34784 21 12 21C14.6522 21 17.1957 19.9464 19.0711 18.0711C20.9464 16.1957 22 13.6522 22 11C22 8.34784 20.9464 5.8043 19.0711 3.92893C17.1957 2.05357 14.6522 1 12 1V1ZM12 15C11.4696 15 10.9609 15.2107 10.5858 15.5858C10.2107 15.9609 10 16.4696 10 17C10 17.5304 10.2107 18.0391 10.5858 18.4142C10.9609 18.7893 11.4696 19 12 19C12.5304 19 13.0391 18.7893 13.4142 18.4142C13.7893 18.0391 14 17.5304 14 17C14 16.4696 13.7893 15.9609 13.4142 15.5858C13.0391 15.2107 12.5304 15 12 15ZM8.54 13C8.40868 12.7722 8.23377 12.5724 8.02525 12.4122C7.81673 12.2519 7.57869 12.1343 7.32472 12.0661C7.07076 11.9978 6.80583 11.9803 6.54508 12.0144C6.28432 12.0485 6.03284 12.1337 5.805 12.265C5.57716 12.3963 5.37741 12.5712 5.21716 12.7798C5.05692 12.9883 4.93931 13.2263 4.87106 13.4803C4.80281 13.7342 4.78525 13.9992 4.81939 14.2599C4.85352 14.5207 4.93868 14.7722 5.07 15C5.33522 15.4602 5.77236 15.7961 6.28528 15.9339C6.79819 16.0718 7.34485 16.0002 7.805 15.735C8.26515 15.4698 8.6011 15.0326 8.73894 14.5197C8.87678 14.0068 8.80522 13.4602 8.54 13V13ZM8.54 9C8.67132 8.77216 8.75648 8.52068 8.79061 8.25992C8.82475 7.99917 8.80719 7.73424 8.73894 7.48028C8.67069 7.22631 8.55308 6.98827 8.39284 6.77975C8.23259 6.57123 8.03284 6.39632 7.805 6.265C7.57716 6.13368 7.32568 6.04852 7.06492 6.01439C6.80417 5.98025 6.53924 5.99781 6.28528 6.06606C6.03131 6.13431 5.79327 6.25192 5.58475 6.41216C5.37624 6.57241 5.20132 6.77216 5.07 7C4.80478 7.46015 4.73322 8.00681 4.87106 8.51972C5.0089 9.03264 5.34485 9.46978 5.805 9.735C6.26515 10.0002 6.81181 10.0718 7.32472 9.93394C7.83764 9.7961 8.27478 9.46015 8.54 9V9ZM12 7C12.5304 7 13.0391 6.78929 13.4142 6.41421C13.7893 6.03914 14 5.53043 14 5C14 4.46957 13.7893 3.96086 13.4142 3.58579C13.0391 3.21071 12.5304 3 12 3C11.4696 3 10.9609 3.21071 10.5858 3.58579C10.2107 3.96086 10 4.46957 10 5C10 5.53043 10.2107 6.03914 10.5858 6.41421C10.9609 6.78929 11.4696 7 12 7ZM15.46 9C15.5913 9.22784 15.7662 9.42759 15.9748 9.58784C16.1833 9.74808 16.4213 9.86569 16.6753 9.93394C16.9292 10.0022 17.1942 10.0197 17.4549 9.98561C17.7157 9.95148 17.9672 9.86632 18.195 9.735C18.4228 9.60368 18.6226 9.42876 18.7828 9.22025C18.9431 9.01173 19.0607 8.77369 19.1289 8.51972C19.1972 8.26576 19.2147 8.00083 19.1806 7.74008C19.1465 7.47932 19.0613 7.22784 18.93 7C18.7987 6.77216 18.6238 6.57241 18.4152 6.41216C18.2067 6.25192 17.9687 6.13431 17.7147 6.06606C17.2018 5.92822 16.6552 5.99978 16.195 6.265C15.7348 6.53022 15.3989 6.96736 15.2611 7.48028C15.1232 7.99319 15.1948 8.53985 15.46 9V9ZM15.46 13C15.3287 13.2278 15.2435 13.4793 15.2094 13.7401C15.1753 14.0008 15.1928 14.2658 15.2611 14.5197C15.3293 14.7737 15.4469 15.0117 15.6072 15.2202C15.7674 15.4288 15.9672 15.6037 16.195 15.735C16.4228 15.8663 16.6743 15.9515 16.9351 15.9856C17.1958 16.0197 17.4608 16.0022 17.7147 15.9339C17.9687 15.8657 18.2067 15.7481 18.4152 15.5878C18.6238 15.4276 18.7987 15.2278 18.93 15C19.1952 14.5398 19.2668 13.9932 19.1289 13.4803C18.9911 12.9674 18.6552 12.5302 18.195 12.265C17.7348 11.9998 17.1882 11.9282 16.6753 12.0661C16.1624 12.2039 15.7252 12.5398 15.46 13V13ZM24 43C25.3132 43 26.6136 42.7413 27.8268 42.2388C29.0401 41.7362 30.1425 40.9997 31.0711 40.0711C31.9997 39.1425 32.7362 38.0401 33.2388 36.8268C33.7413 35.6136 34 34.3132 34 33C34 31.6868 33.7413 30.3864 33.2388 29.1732C32.7362 27.9599 31.9997 26.8575 31.0711 25.9289C30.1425 25.0003 29.0401 24.2638 27.8268 23.7612C26.6136 23.2587 25.3132 23 24 23C21.3478 23 18.8043 24.0536 16.9289 25.9289C15.0536 27.8043 14 30.3478 14 33C14 35.6522 15.0536 38.1957 16.9289 40.0711C18.8043 41.9464 21.3478 43 24 43V43ZM24 29C24.5304 29 25.0391 28.7893 25.4142 28.4142C25.7893 28.0391 26 27.5304 26 27C26 26.4696 25.7893 25.9609 25.4142 25.5858C25.0391 25.2107 24.5304 25 24 25C23.4696 25 22.9609 25.2107 22.5858 25.5858C22.2107 25.9609 22 26.4696 22 27C22 27.5304 22.2107 28.0391 22.5858 28.4142C22.9609 28.7893 23.4696 29 24 29V29ZM27.46 31C27.7252 31.4602 28.1624 31.7961 28.6753 31.9339C29.1882 32.0718 29.7348 32.0002 30.195 31.735C30.6552 31.4698 30.9911 31.0326 31.1289 30.5197C31.2668 30.0068 31.1952 29.4602 30.93 29C30.6648 28.5398 30.2276 28.2039 29.7147 28.0661C29.2018 27.9282 28.6552 27.9998 28.195 28.265C27.7348 28.5302 27.3989 28.9674 27.2611 29.4803C27.1232 29.9932 27.1948 30.5398 27.46 31V31ZM27.46 35C27.1948 35.4602 27.1232 36.0068 27.2611 36.5197C27.3989 37.0326 27.7348 37.4698 28.195 37.735C28.6552 38.0002 29.2018 38.0718 29.7147 37.9339C30.2276 37.7961 30.6648 37.4602 30.93 37C31.0613 36.7722 31.1465 36.5207 31.1806 36.2599C31.2147 35.9992 31.1972 35.7342 31.1289 35.4803C31.0607 35.2263 30.9431 34.9883 30.7828 34.7798C30.6226 34.5712 30.4228 34.3963 30.195 34.265C29.7348 33.9998 29.1882 33.9282 28.6753 34.0661C28.1624 34.2039 27.7252 34.5398 27.46 35ZM24 37C23.4696 37 22.9609 37.2107 22.5858 37.5858C22.2107 37.9609 22 38.4696 22 39C22 39.5304 22.2107 40.0391 22.5858 40.4142C22.9609 40.7893 23.4696 41 24 41C24.5304 41 25.0391 40.7893 25.4142 40.4142C25.7893 40.0391 26 39.5304 26 39C26 38.4696 25.7893 37.9609 25.4142 37.5858C25.0391 37.2107 24.5304 37 24 37ZM20.54 35C20.4087 34.7722 20.2338 34.5724 20.0252 34.4122C19.8167 34.2519 19.5787 34.1343 19.3247 34.0661C19.0708 33.9978 18.8058 33.9803 18.5451 34.0144C18.2843 34.0485 18.0328 34.1337 17.805 34.265C17.5772 34.3963 17.3774 34.5712 17.2172 34.7798C17.0569 34.9883 16.9393 35.2263 16.8711 35.4803C16.8028 35.7342 16.7853 35.9992 16.8194 36.2599C16.8535 36.5207 16.9387 36.7722 17.07 37C17.3352 37.4602 17.7724 37.7961 18.2853 37.9339C18.7982 38.0718 19.3448 38.0002 19.805 37.735C20.2652 37.4698 20.6011 37.0326 20.7389 36.5197C20.8768 36.0068 20.8052 35.4602 20.54 35V35ZM20.54 31C20.6713 30.7722 20.7565 30.5207 20.7906 30.2599C20.8247 29.9992 20.8072 29.7342 20.7389 29.4803C20.6707 29.2263 20.5531 28.9883 20.3928 28.7798C20.2326 28.5712 20.0328 28.3963 19.805 28.265C19.5772 28.1337 19.3257 28.0485 19.0649 28.0144C18.8042 27.9803 18.5392 27.9978 18.2853 28.0661C18.0313 28.1343 17.7933 28.2519 17.5848 28.4122C17.3762 28.5724 17.2013 28.7722 17.07 29C16.8048 29.4602 16.7332 30.0068 16.8711 30.5197C17.0089 31.0326 17.3448 31.4698 17.805 31.735C18.2652 32.0002 18.8118 32.0718 19.3247 31.9339C19.8376 31.7961 20.2748 31.4602 20.54 31Z" fill="white"/>
</svg>
