<svg width="36" height="36" viewBox="0 0 36 36" fill="none" xmlns="http://www.w3.org/2000/svg">
<path d="M30.1553 9.30094C30.2162 8.80559 30.2481 8.30123 30.2481 7.78943C30.2481 3.4875 26.7606 0 22.4586 0H9.44085C8.62199 0 7.92287 0.591328 7.78703 1.3988L2.99031 29.9088C2.81819 30.9318 3.60681 31.8641 4.64413 31.8641H9.40506C10.2239 31.8641 10.9362 31.2732 11.072 30.4656C11.072 30.4656 11.0799 30.4183 11.0942 30.3331H11.0943L10.4309 34.2766C10.2793 35.1783 10.9743 36 11.8886 36H16.0537C16.7754 36 17.3916 35.4788 17.5113 34.7671L18.6946 27.7344C18.8986 26.5221 19.9481 25.6344 21.1774 25.6344H22.2716C28.2151 25.6344 33.0332 20.8162 33.0332 14.8728C33.0332 12.5729 31.8964 10.54 30.1553 9.30094Z" fill="#445887"/>
<path d="M30.1552 9.2998C29.4103 15.3593 24.2459 20.0513 17.9851 20.0513H14.3524C13.5325 20.0513 12.8244 20.5974 12.6023 21.3696L10.4309 34.2754C10.2792 35.1771 10.9743 35.9989 11.8885 35.9989H16.0536C16.7754 35.9989 17.3916 35.4776 17.5113 34.7659L18.6946 27.7333C18.8985 26.521 19.9481 25.6333 21.1774 25.6333H22.2716C28.2151 25.6333 33.0332 20.8151 33.0332 14.8717C33.0332 12.5718 31.8964 10.5389 30.1552 9.2998Z" fill="#66A9CC"/>
<path d="M14.3526 20.0524H17.9853C24.2461 20.0524 29.4106 15.3603 30.1554 9.30094C29.0383 8.50599 27.6731 8.03687 26.1975 8.03687H16.7159C15.6364 8.03687 14.7146 8.81642 14.5355 9.88095L12.6024 21.3706C12.8245 20.5984 13.5327 20.0524 14.3526 20.0524Z" fill="#35416A"/>
</svg>
